<svg width="317" height="183" viewBox="0 0 317 183" fill="none" xmlns="http://www.w3.org/2000/svg">
<path d="M231.5 108L192 31C189.264 27.7295 187.33 26.2635 183.5 24L173 20H164L155 24L147.5 32C164.878 66.7567 164.122 64.7433 181.5 99.5L194.5 112.5L214 117.5L231.5 108Z" fill="#75E6DA"/>
<path d="M231.5 108L192 31C189.264 27.7295 187.33 26.2635 183.5 24L173 20H164L155 24L147.5 32C164.878 66.7567 164.122 64.7433 181.5 99.5L194.5 112.5L214 117.5L231.5 108Z" fill="url(#paint0_linear_15_41)"/>
<path d="M143.933 93L115 31C112.264 27.7295 110.33 26.2635 106.5 24L96 20H87L78 24L70.5 32C87.8783 66.7567 87.1217 64.7433 104.5 99.5L117.5 112.5L126.433 102.5L143.933 93Z" fill="#75E6DA"/>
<path d="M143.933 93L115 31C112.264 27.7295 110.33 26.2635 106.5 24L96 20H87L78 24L70.5 32C87.8783 66.7567 87.1217 64.7433 104.5 99.5L117.5 112.5L126.433 102.5L143.933 93Z" fill="url(#paint1_linear_15_41)"/>
<g filter="url(#filter0_d_15_41)">
<path d="M287.022 10.0323L243.002 99.8344C235.02 116.163 208.139 137.819 182.211 100.126C182.139 100.026 182.07 99.9242 182.002 99.8213C182.072 99.9232 182.141 100.025 182.211 100.126C185.668 104.945 194.375 106.512 197.502 99.8246L231.5 34C238.89 15.9235 243.339 10.1118 252 10.0323L287.022 10.0323Z" fill="#75E6DA"/>
</g>
<g filter="url(#filter1_d_15_41)">
<path d="M87 121L131 31.1884C138.979 14.8577 165.856 -6.80328 191.791 30.8839C191.863 30.984 191.933 31.0855 192 31.1884C191.93 31.0865 191.861 30.985 191.791 30.8839C188.334 26.0659 179.626 24.5 176.5 31.1884L131 121H87Z" fill="#75E6DA"/>
</g>
<g filter="url(#filter2_d_15_41)">
<path d="M10 121L54 31.1884C61.9786 14.8577 88.8557 -6.80328 114.791 30.8839C114.863 30.984 114.933 31.0855 115 31.1884C114.93 31.0865 114.861 30.985 114.791 30.8839C111.334 26.0659 102.626 24.5 99.5 31.1884L54 121H10Z" fill="#75E6DA"/>
</g>
<path d="M316.989 10H274.633L264 45.9562H316.989C317.002 47.2644 317.005 18.9253 316.989 10Z" fill="#75E6DA"/>
<path d="M117.503 174L123.551 150.64H127.743L133.759 174H130.527L129.055 167.92H122.207L120.735 174H117.503ZM122.847 165.296H128.415L126.751 158.32C126.431 157.04 126.175 155.952 125.983 155.056C125.791 154.16 125.674 153.552 125.631 153.232C125.589 153.552 125.471 154.16 125.279 155.056C125.087 155.952 124.842 157.029 124.543 158.288L122.847 165.296ZM143.667 174.32C141.896 174.32 140.477 173.733 139.411 172.56C138.344 171.365 137.811 169.755 137.811 167.728V162.672C137.811 160.645 138.344 159.045 139.411 157.872C140.477 156.677 141.896 156.08 143.667 156.08C144.947 156.08 146.003 156.411 146.835 157.072C147.688 157.712 148.221 158.587 148.435 159.696H148.499L148.435 155.696V150.64H151.603V174H148.467V170.672H148.435C148.221 171.824 147.688 172.72 146.835 173.36C146.003 174 144.947 174.32 143.667 174.32ZM144.755 171.568C145.885 171.568 146.781 171.216 147.443 170.512C148.104 169.808 148.435 168.816 148.435 167.536V162.864C148.435 161.584 148.104 160.592 147.443 159.888C146.781 159.184 145.885 158.832 144.755 158.832C143.581 158.832 142.653 159.184 141.971 159.888C141.309 160.571 140.979 161.552 140.979 162.832V167.536C140.979 168.837 141.309 169.84 141.971 170.544C142.653 171.227 143.581 171.568 144.755 171.568ZM156.23 174V156.4H158.95V158.576H159.142C159.27 157.829 159.601 157.232 160.134 156.784C160.668 156.315 161.318 156.08 162.086 156.08C162.79 156.08 163.398 156.304 163.91 156.752C164.422 157.2 164.796 157.808 165.03 158.576H165.19C165.318 157.829 165.649 157.232 166.182 156.784C166.737 156.315 167.409 156.08 168.198 156.08C169.244 156.08 170.097 156.507 170.758 157.36C171.441 158.192 171.782 159.28 171.782 160.624V174H168.902V160.656C168.902 159.205 168.305 158.48 167.11 158.48C166.513 158.48 166.054 158.672 165.734 159.056C165.414 159.419 165.254 159.952 165.254 160.656V174H162.758V160.656C162.758 159.973 162.588 159.44 162.246 159.056C161.926 158.672 161.478 158.48 160.902 158.48C159.708 158.48 159.11 159.205 159.11 160.656V174H156.23ZM176.25 174V171.12H182.426V159.28H176.89V156.4H185.594V171.12H191.386V174H176.25ZM183.706 153.296C182.98 153.296 182.404 153.115 181.978 152.752C181.551 152.368 181.338 151.856 181.338 151.216C181.338 150.555 181.551 150.032 181.978 149.648C182.404 149.264 182.98 149.072 183.706 149.072C184.431 149.072 185.007 149.264 185.434 149.648C185.86 150.032 186.074 150.555 186.074 151.216C186.074 151.856 185.86 152.368 185.434 152.752C185.007 153.115 184.431 153.296 183.706 153.296ZM195.597 174V156.4H198.733V159.76H198.797C198.947 158.587 199.427 157.68 200.237 157.04C201.048 156.4 202.125 156.08 203.469 156.08C205.219 156.08 206.616 156.635 207.661 157.744C208.707 158.853 209.229 160.347 209.229 162.224V174H206.061V162.576C206.061 161.381 205.741 160.464 205.101 159.824C204.461 159.163 203.587 158.832 202.477 158.832C201.325 158.832 200.419 159.184 199.757 159.888C199.096 160.571 198.765 161.552 198.765 162.832V174H195.597Z" fill="#D4F1F4"/>
<defs>
<filter id="filter0_d_15_41" x="172.002" y="0.0323486" width="125.019" height="130.984" filterUnits="userSpaceOnUse" color-interpolation-filters="sRGB">
<feFlood flood-opacity="0" result="BackgroundImageFix"/>
<feColorMatrix in="SourceAlpha" type="matrix" values="0 0 0 0 0 0 0 0 0 0 0 0 0 0 0 0 0 0 127 0" result="hardAlpha"/>
<feOffset/>
<feGaussianBlur stdDeviation="5"/>
<feComposite in2="hardAlpha" operator="out"/>
<feColorMatrix type="matrix" values="0 0 0 0 0 0 0 0 0 0 0 0 0 0 0 0 0 0 0.25 0"/>
<feBlend mode="normal" in2="BackgroundImageFix" result="effect1_dropShadow_15_41"/>
<feBlend mode="normal" in="SourceGraphic" in2="effect1_dropShadow_15_41" result="shape"/>
</filter>
<filter id="filter1_d_15_41" x="77" y="4" width="125" height="131" filterUnits="userSpaceOnUse" color-interpolation-filters="sRGB">
<feFlood flood-opacity="0" result="BackgroundImageFix"/>
<feColorMatrix in="SourceAlpha" type="matrix" values="0 0 0 0 0 0 0 0 0 0 0 0 0 0 0 0 0 0 127 0" result="hardAlpha"/>
<feOffset dy="4"/>
<feGaussianBlur stdDeviation="5"/>
<feComposite in2="hardAlpha" operator="out"/>
<feColorMatrix type="matrix" values="0 0 0 0 0 0 0 0 0 0 0 0 0 0 0 0 0 0 0.25 0"/>
<feBlend mode="normal" in2="BackgroundImageFix" result="effect1_dropShadow_15_41"/>
<feBlend mode="normal" in="SourceGraphic" in2="effect1_dropShadow_15_41" result="shape"/>
</filter>
<filter id="filter2_d_15_41" x="0" y="4" width="125" height="131" filterUnits="userSpaceOnUse" color-interpolation-filters="sRGB">
<feFlood flood-opacity="0" result="BackgroundImageFix"/>
<feColorMatrix in="SourceAlpha" type="matrix" values="0 0 0 0 0 0 0 0 0 0 0 0 0 0 0 0 0 0 127 0" result="hardAlpha"/>
<feOffset dy="4"/>
<feGaussianBlur stdDeviation="5"/>
<feComposite in2="hardAlpha" operator="out"/>
<feColorMatrix type="matrix" values="0 0 0 0 0 0 0 0 0 0 0 0 0 0 0 0 0 0 0.25 0"/>
<feBlend mode="normal" in2="BackgroundImageFix" result="effect1_dropShadow_15_41"/>
<feBlend mode="normal" in="SourceGraphic" in2="effect1_dropShadow_15_41" result="shape"/>
</filter>
<linearGradient id="paint0_linear_15_41" x1="211" y1="108.5" x2="163" y2="20" gradientUnits="userSpaceOnUse">
<stop offset="0.0572917" stop-color="#05445E"/>
<stop offset="0.567782" stop-color="#05445E" stop-opacity="0.44"/>
<stop offset="1" stop-color="white" stop-opacity="0.37"/>
</linearGradient>
<linearGradient id="paint1_linear_15_41" x1="134" y1="108.5" x2="86" y2="20" gradientUnits="userSpaceOnUse">
<stop offset="0.0572917" stop-color="#05445E"/>
<stop offset="0.567782" stop-color="#05445E" stop-opacity="0.44"/>
<stop offset="1" stop-color="white" stop-opacity="0.37"/>
</linearGradient>
</defs>
</svg>
